<svg width="48" height="48" viewBox="0 0 48 48" fill="none" xmlns="http://www.w3.org/2000/svg">
<path d="M42 9V15H6V9H42ZM42 7H6C5.46957 7 4.96086 7.21071 4.58579 7.58579C4.21071 7.96086 4 8.46957 4 9V15C4 15.5304 4.21071 16.0391 4.58579 16.4142C4.96086 16.7893 5.46957 17 6 17H42C42.5304 17 43.0391 16.7893 43.4142 16.4142C43.7893 16.0391 44 15.5304 44 15V9C44 8.46957 43.7893 7.96086 43.4142 7.58579C43.0391 7.21071 42.5304 7 42 7V7Z" fill="#2979FF"/>
<path d="M11 11H9C8.44772 11 8 11.4477 8 12C8 12.5523 8.44772 13 9 13H11C11.5523 13 12 12.5523 12 12C12 11.4477 11.5523 11 11 11Z" fill="#2979FF"/>
<path d="M42 21V27H6V21H42ZM42 19H6C5.46957 19 4.96086 19.2107 4.58579 19.5858C4.21071 19.9609 4 20.4696 4 21V27C4 27.5304 4.21071 28.0391 4.58579 28.4142C4.96086 28.7893 5.46957 29 6 29H42C42.5304 29 43.0391 28.7893 43.4142 28.4142C43.7893 28.0391 44 27.5304 44 27V21C44 20.4696 43.7893 19.9609 43.4142 19.5858C43.0391 19.2107 42.5304 19 42 19Z" fill="#2979FF"/>
<path d="M11 23H9C8.44772 23 8 23.4477 8 24C8 24.5523 8.44772 25 9 25H11C11.5523 25 12 24.5523 12 24C12 23.4477 11.5523 23 11 23Z" fill="#2979FF"/>
<path d="M42 33V39H6V33H42ZM42 31H6C5.46957 31 4.96086 31.2107 4.58579 31.5858C4.21071 31.9609 4 32.4696 4 33V39C4 39.5304 4.21071 40.0391 4.58579 40.4142C4.96086 40.7893 5.46957 41 6 41H42C42.5304 41 43.0391 40.7893 43.4142 40.4142C43.7893 40.0391 44 39.5304 44 39V33C44 32.4696 43.7893 31.9609 43.4142 31.5858C43.0391 31.2107 42.5304 31 42 31Z" fill="#2979FF"/>
<path d="M11 35H9C8.44772 35 8 35.4477 8 36C8 36.5523 8.44772 37 9 37H11C11.5523 37 12 36.5523 12 36C12 35.4477 11.5523 35 11 35Z" fill="#2979FF"/>
</svg>
