<svg width="48" height="48" viewBox="0 0 48 48" fill="none" xmlns="http://www.w3.org/2000/svg">
<path d="M42.8499 17.15C42.5861 17.1462 42.3345 17.0384 42.1499 16.85C39.7669 14.4655 36.9375 12.574 33.8232 11.2835C30.709 9.99293 27.371 9.32869 23.9999 9.32869C20.6288 9.32869 17.2908 9.99293 14.1765 11.2835C11.0623 12.574 8.23285 14.4655 5.84989 16.85C5.66526 17.0384 5.41366 17.1462 5.14989 17.15V17.15C5.01758 17.1494 4.8867 17.1226 4.76482 17.0711C4.64295 17.0196 4.5325 16.9445 4.43989 16.85L0.65989 13.08C0.567208 12.9865 0.493883 12.8757 0.444119 12.7539C0.394354 12.632 0.369129 12.5016 0.36989 12.37C0.369129 12.2384 0.394354 12.1079 0.444119 11.9861C0.493883 11.8642 0.567208 11.7534 0.65989 11.66C3.72443 8.59399 7.363 6.16185 11.3678 4.50247C15.3725 2.8431 19.665 1.98901 23.9999 1.98901C28.3348 1.98901 32.6273 2.8431 36.632 4.50247C40.6368 6.16185 44.2754 8.59399 47.3399 11.66C47.4326 11.7534 47.5059 11.8642 47.5557 11.9861C47.6054 12.1079 47.6307 12.2384 47.6299 12.37C47.6307 12.5016 47.6054 12.632 47.5557 12.7539C47.5059 12.8757 47.4326 12.9865 47.3399 13.08L43.5599 16.85C43.4673 16.9445 43.3568 17.0196 43.235 17.0711C43.1131 17.1226 42.9822 17.1494 42.8499 17.15ZM23.9999 7.32997C30.9935 7.31542 37.7301 9.965 42.8399 14.74L45.2099 12.38C39.4633 6.98882 31.8795 3.98828 23.9999 3.98828C16.1203 3.98828 8.53646 6.98882 2.78989 12.38L5.15989 14.74C10.2697 9.965 17.0063 7.31542 23.9999 7.32997V7.32997Z" fill="#2979FF"/>
<path d="M35.3199 24.68C35.1883 24.6808 35.0579 24.6556 34.936 24.6058C34.8142 24.5561 34.7034 24.4827 34.6099 24.39C33.2169 22.9961 31.5629 21.8904 29.7424 21.136C27.9219 20.3816 25.9706 19.9932 23.9999 19.9932C22.0293 19.9932 20.078 20.3816 18.2575 21.136C16.437 21.8904 14.7829 22.9961 13.3899 24.39C13.2026 24.5763 12.9491 24.6808 12.6849 24.6808C12.4208 24.6808 12.1673 24.5763 11.9799 24.39L8.20994 20.62C8.02519 20.4338 7.92104 20.1824 7.91994 19.92C7.91918 19.7884 7.9444 19.658 7.99417 19.5361C8.04393 19.4143 8.11726 19.3035 8.20994 19.21C10.2835 17.1364 12.7452 15.4915 15.4544 14.3693C18.1637 13.247 21.0674 12.6694 23.9999 12.6694C26.9324 12.6694 29.8362 13.247 32.5455 14.3693C35.2547 15.4915 37.7164 17.1364 39.7899 19.21C39.8826 19.3035 39.9559 19.4143 40.0057 19.5361C40.0555 19.658 40.0807 19.7884 40.0799 19.92C40.0788 20.1824 39.9747 20.4338 39.7899 20.62L35.9999 24.39C35.8186 24.57 35.5753 24.6738 35.3199 24.68V24.68ZM23.9999 18C28.1631 17.9915 32.183 19.519 35.2899 22.29L37.6499 19.93C33.9098 16.5444 29.0449 14.6696 23.9999 14.6696C18.955 14.6696 14.0901 16.5444 10.3499 19.93L12.7099 22.29C15.8169 19.519 19.8368 17.9915 23.9999 18V18Z" fill="#2979FF"/>
<path d="M24 36C23.8684 36.0007 23.738 35.9755 23.6161 35.9258C23.4943 35.876 23.3835 35.8027 23.29 35.71L15.75 28.16C15.5638 27.9726 15.4592 27.7192 15.4592 27.455C15.4592 27.1908 15.5638 26.9373 15.75 26.75C16.8329 25.6657 18.119 24.8055 19.5346 24.2187C20.9502 23.6318 22.4676 23.3297 24 23.3297C25.5325 23.3297 27.0499 23.6318 28.4655 24.2187C29.8811 24.8055 31.1671 25.6657 32.25 26.75C32.4363 26.9373 32.5408 27.1908 32.5408 27.455C32.5408 27.7192 32.4363 27.9726 32.25 28.16L24.71 35.71C24.6166 35.8027 24.5058 35.876 24.3839 35.9258C24.2621 35.9755 24.1316 36.0007 24 36ZM17.9 27.49L24 33.59L30.1 27.49C28.3744 26.0919 26.2209 25.329 24 25.329C21.7791 25.329 19.6256 26.0919 17.9 27.49V27.49Z" fill="#2979FF"/>
<path d="M22.2099 41.8801C22.2099 43.1201 21.2999 44.2001 19.3099 44.2001C18.3658 44.2159 17.4377 43.9552 16.6399 43.4501L17.2799 42.2101C17.8626 42.6274 18.5632 42.8481 19.2799 42.8401C20.0899 42.8401 20.5899 42.5001 20.5899 41.9301C20.5899 41.3601 20.2099 41.0001 18.9999 41.0001H17.1599L17.5199 37.0601H21.7799V38.3601H18.8699L18.7599 39.6901H19.3299C21.3899 39.7101 22.2099 40.6401 22.2099 41.8801Z" fill="#2979FF"/>
<path d="M22.83 43.18C22.8842 42.9638 23.0091 42.7718 23.1849 42.6347C23.3606 42.4976 23.5771 42.4231 23.8 42.4231C24.023 42.4231 24.2395 42.4976 24.4152 42.6347C24.591 42.7718 24.7159 42.9638 24.77 43.18C24.807 43.3274 24.8099 43.4814 24.7784 43.6301C24.7469 43.7788 24.682 43.9184 24.5884 44.0383C24.4949 44.1581 24.3753 44.2551 24.2387 44.3218C24.1021 44.3884 23.9521 44.4231 23.8 44.4231C23.648 44.4231 23.498 44.3884 23.3614 44.3218C23.2248 44.2551 23.1052 44.1581 23.0117 44.0383C22.9181 43.9184 22.8532 43.7788 22.8217 43.6301C22.7902 43.4814 22.7931 43.3274 22.83 43.18Z" fill="#2979FF"/>
<path d="M25.3701 40.58C25.3701 38.27 26.6501 36.96 28.3701 36.96C30.0901 36.96 31.3701 38.27 31.3701 40.58C31.3701 42.89 30.1001 44.2 28.3701 44.2C26.6401 44.2 25.3701 42.89 25.3701 40.58ZM29.7301 40.58C29.7301 38.99 29.1701 38.33 28.3601 38.33C27.5501 38.33 27.0001 39 27.0001 40.58C27.0001 42.16 27.5601 42.83 28.3501 42.83C29.1401 42.83 29.7301 42.17 29.7301 40.58Z" fill="#2979FF"/>
</svg>
