<svg width="48" height="48" viewBox="0 0 48 48" fill="none" xmlns="http://www.w3.org/2000/svg">
<path d="M44 17.7L43.78 17C42.3246 12.9187 39.6424 9.38755 36.1011 6.89067C32.5599 4.3938 28.333 3.05347 24 3.05347C19.667 3.05347 15.44 4.3938 11.8988 6.89067C8.35754 9.38755 5.67534 12.9187 4.21997 17V17L3.99997 17.7C2.70639 21.8004 2.70639 26.1996 3.99997 30.3L4.21997 31C5.67534 35.0813 8.35754 38.6124 11.8988 41.1093C15.44 43.6062 19.667 44.9465 24 44.9465C28.333 44.9465 32.5599 43.6062 36.1011 41.1093C39.6424 38.6124 42.3246 35.0813 43.78 31V31L44 30.3C45.2935 26.1996 45.2935 21.8004 44 17.7V17.7ZM43 25.37C43 25.52 43 25.66 42.95 25.81C42.95 26.12 42.89 26.42 42.85 26.72L42.76 27.24C42.71 27.52 42.66 27.79 42.6 28.07L42.48 28.61C42.48 28.74 42.4 28.87 42.37 29H34.69C34.8919 27.3409 34.9954 25.6713 35 24C34.9954 22.3287 34.8919 20.6591 34.69 19H42.32C42.32 19.13 42.39 19.27 42.43 19.4L42.55 19.93C42.61 20.2 42.66 20.48 42.71 20.76L42.8 21.28C42.8 21.58 42.87 21.88 42.9 22.19C42.9 22.34 42.9 22.48 42.95 22.63C42.95 23.09 42.95 23.54 42.95 24C42.95 24.46 43 24.91 43 25.37ZM24 43C20.29 43 17 38 15.66 31H32.34C31 38 27.71 43 24 43ZM15.34 29C14.8866 25.6821 14.8866 22.3179 15.34 19H32.66C32.8868 20.657 33.0004 22.3275 33 24C33.0004 25.6724 32.8868 27.343 32.66 29H15.34ZM5.67997 29C5.67997 28.87 5.60997 28.73 5.56997 28.6L5.44997 28.07C5.38997 27.8 5.33997 27.52 5.28997 27.24L5.19997 26.72C5.19997 26.42 5.12997 26.12 5.09997 25.81C5.09997 25.66 5.09997 25.52 5.09997 25.37C5.09997 24.91 5.09997 24.46 5.09997 24C5.09997 23.54 5.09997 23.09 5.09997 22.63C5.09997 22.48 5.09997 22.33 5.09997 22.19C5.09997 21.88 5.15997 21.58 5.19997 21.28L5.28997 20.75C5.28997 20.48 5.38997 20.21 5.44997 19.93C5.50997 19.65 5.52997 19.57 5.57997 19.39C5.62997 19.21 5.64997 19.13 5.67997 19H13.31C12.8967 22.3205 12.8967 25.6795 13.31 29H5.67997ZM24 4.99999C27.71 4.99999 31 10.05 32.34 17H15.66C17 10.05 20.29 4.99999 24 4.99999ZM41.66 17H34.38C33.53 12.24 31.82 8.30999 29.58 5.83999C32.3069 6.66457 34.811 8.09747 36.9035 10.0306C38.996 11.9638 40.6224 14.3468 41.66 17V17ZM18.42 5.83999C16.18 8.30999 14.42 12.24 13.62 17H6.33997C7.37754 14.3468 9.0039 11.9638 11.0964 10.0306C13.189 8.09747 15.6931 6.66457 18.42 5.83999V5.83999ZM6.33997 31H13.62C14.47 35.76 16.18 39.69 18.42 42.16C15.6931 41.3354 13.189 39.9025 11.0964 37.9693C9.0039 36.0362 7.37754 33.6532 6.33997 31V31ZM29.58 42.16C31.82 39.69 33.58 35.76 34.38 31H41.66C40.6224 33.6532 38.996 36.0362 36.9035 37.9693C34.811 39.9025 32.3069 41.3354 29.58 42.16V42.16Z" fill="#2979FF"/>
</svg>
