<svg width="40" height="28" viewBox="0 0 40 28" fill="none" xmlns="http://www.w3.org/2000/svg">
<path d="M19.8763 2.27558e-05L9.75472 13.9373L8.07789 16.2451L7.59425 15.7633L0 8.19808C2.60793 5.59506 5.70633 3.53086 9.11729 2.124C12.5282 0.717134 16.1846 -0.00467208 19.8763 2.27558e-05V2.27558e-05Z" fill="#0068FF"/>
<path d="M39.7527 8.19808L32.163 15.7633L31.6748 16.2451L30.0071 13.9404H29.9995L19.8763 2.27558e-05C23.5681 -0.00467208 27.2244 0.717134 30.6354 2.124C34.0463 3.53086 37.1447 5.59506 39.7527 8.19808V8.19808Z" fill="#0068FF"/>
<path d="M27.1704 20.7338L19.8763 28L12.5823 20.7338L19.8763 10.6931L27.1704 20.7338Z" fill="#0068FF"/>
</svg>
