<svg width="48" height="48" viewBox="0 0 48 48" fill="none" xmlns="http://www.w3.org/2000/svg">
<path d="M42.8499 17.15C42.5861 17.1462 42.3345 17.0384 42.1499 16.85C39.7669 14.4655 36.9375 12.574 33.8232 11.2835C30.709 9.99293 27.371 9.32869 23.9999 9.32869C20.6288 9.32869 17.2908 9.99293 14.1765 11.2835C11.0623 12.574 8.23285 14.4655 5.84989 16.85C5.66253 17.0362 5.40908 17.1408 5.14489 17.1408C4.8807 17.1408 4.62725 17.0362 4.43989 16.85L0.65989 13.08C0.567208 12.9865 0.493883 12.8757 0.444119 12.7539C0.394354 12.632 0.369129 12.5016 0.36989 12.37C0.369129 12.2384 0.394354 12.1079 0.444119 11.9861C0.493883 11.8642 0.567208 11.7534 0.65989 11.66C3.72443 8.59399 7.363 6.16185 11.3678 4.50247C15.3725 2.8431 19.665 1.98901 23.9999 1.98901C28.3348 1.98901 32.6273 2.8431 36.632 4.50247C40.6368 6.16185 44.2754 8.59399 47.3399 11.66C47.4326 11.7534 47.5059 11.8642 47.5557 11.9861C47.6054 12.1079 47.6307 12.2384 47.6299 12.37C47.6307 12.5016 47.6054 12.632 47.5557 12.7539C47.5059 12.8757 47.4326 12.9865 47.3399 13.08L43.5599 16.85C43.4673 16.9445 43.3568 17.0196 43.235 17.0711C43.1131 17.1226 42.9822 17.1494 42.8499 17.15ZM2.78989 12.38L5.15989 14.74C10.2781 9.97852 17.0094 7.33163 23.9999 7.33163C30.9904 7.33163 37.7217 9.97852 42.8399 14.74L45.2099 12.38C39.4633 6.98882 31.8795 3.98828 23.9999 3.98828C16.1203 3.98828 8.53646 6.98882 2.78989 12.38V12.38Z" fill="#2979FF"/>
<path d="M35.3199 24.68C35.1883 24.6808 35.0579 24.6556 34.936 24.6058C34.8142 24.5561 34.7034 24.4827 34.6099 24.39C33.2169 22.9961 31.5629 21.8904 29.7424 21.136C27.9219 20.3816 25.9706 19.9932 23.9999 19.9932C22.0293 19.9932 20.078 20.3816 18.2575 21.136C16.437 21.8904 14.7829 22.9961 13.3899 24.39C13.2026 24.5763 12.9491 24.6808 12.6849 24.6808C12.4208 24.6808 12.1673 24.5763 11.9799 24.39L8.20994 20.62C8.02519 20.4338 7.92104 20.1824 7.91994 19.92C7.91918 19.7884 7.9444 19.658 7.99417 19.5361C8.04393 19.4143 8.11726 19.3035 8.20994 19.21C10.2835 17.1364 12.7452 15.4915 15.4544 14.3693C18.1637 13.247 21.0674 12.6694 23.9999 12.6694C26.9324 12.6694 29.8362 13.247 32.5455 14.3693C35.2547 15.4915 37.7164 17.1364 39.7899 19.21C39.8826 19.3035 39.9559 19.4143 40.0057 19.5361C40.0555 19.658 40.0807 19.7884 40.0799 19.92C40.0788 20.1824 39.9747 20.4338 39.7899 20.62L35.9999 24.39C35.8186 24.57 35.5753 24.6738 35.3199 24.68V24.68ZM10.3199 19.93L12.6799 22.29C15.7913 19.5262 19.8083 17.9997 23.9699 17.9997C28.1315 17.9997 32.1486 19.5262 35.2599 22.29L37.6199 19.93C33.8798 16.5444 29.0149 14.6696 23.9699 14.6696C18.925 14.6696 14.0601 16.5444 10.3199 19.93V19.93Z" fill="#2979FF"/>
<path d="M24 36C23.8683 36.0007 23.7379 35.9755 23.616 35.9258C23.4942 35.876 23.3834 35.8027 23.29 35.71L15.75 28.16C15.6555 28.0674 15.5803 27.9569 15.5288 27.8351C15.4773 27.7132 15.4505 27.5823 15.45 27.45C15.4537 27.1862 15.5615 26.9346 15.75 26.75C16.8329 25.6657 18.1189 24.8055 19.5345 24.2187C20.9501 23.6318 22.4675 23.3297 24 23.3297C25.5324 23.3297 27.0498 23.6318 28.4654 24.2187C29.881 24.8055 31.167 25.6657 32.25 26.75C32.4362 26.9373 32.5407 27.1908 32.5407 27.455C32.5407 27.7192 32.4362 27.9726 32.25 28.16L24.71 35.71C24.6165 35.8027 24.5057 35.876 24.3839 35.9258C24.262 35.9755 24.1316 36.0007 24 36ZM17.9 27.49L24 33.59L30.1 27.49C28.3743 26.0919 26.2208 25.329 24 25.329C21.7791 25.329 19.6256 26.0919 17.9 27.49V27.49Z" fill="#2979FF"/>
<path d="M21.9 42.8V44.12H16.6201V43.12L19.32 40.57C19.94 39.98 20.0401 39.57 20.0401 39.28C20.0401 38.73 19.67 38.41 18.93 38.41C18.6495 38.3987 18.3704 38.4566 18.1175 38.5787C17.8646 38.7008 17.6457 38.8833 17.48 39.11L16.3 38.3C16.6205 37.8711 17.0419 37.528 17.5269 37.3012C18.0119 37.0744 18.5454 36.971 19.08 37C20.63 37 21.67 37.8 21.67 39.07C21.6604 39.504 21.5496 39.9298 21.3465 40.3135C21.1434 40.6971 20.8536 41.0281 20.5 41.28L18.9 42.8H21.9Z" fill="#2979FF"/>
<path d="M22.6301 43.22C22.6843 43.0038 22.8092 42.8119 22.9849 42.6748C23.1607 42.5376 23.3772 42.4631 23.6001 42.4631C23.823 42.4631 24.0395 42.5376 24.2153 42.6748C24.391 42.8119 24.5159 43.0038 24.5701 43.22C24.6071 43.3675 24.6099 43.5214 24.5784 43.6702C24.547 43.8189 24.482 43.9585 24.3885 44.0783C24.295 44.1982 24.1754 44.2951 24.0387 44.3618C23.9021 44.4285 23.7521 44.4631 23.6001 44.4631C23.4481 44.4631 23.2981 44.4285 23.1615 44.3618C23.0248 44.2951 22.9052 44.1982 22.8117 44.0783C22.7182 43.9585 22.6532 43.8189 22.6218 43.6702C22.5903 43.5214 22.5931 43.3675 22.6301 43.22V43.22Z" fill="#2979FF"/>
<path d="M31.7 42.65H30.56V44.12H29V42.65H25.22V41.56L28.52 37.12H30.21L27.16 41.33H29V40H30.52V41.31H31.7V42.65Z" fill="#2979FF"/>
</svg>
