<svg width="48" height="48" viewBox="0 0 48 48" fill="none" xmlns="http://www.w3.org/2000/svg">
<path d="M42.85 17.15C42.5862 17.1462 42.3346 17.0384 42.15 16.85C39.7671 14.4655 36.9376 12.574 33.8234 11.2835C30.7091 9.99293 27.3711 9.32869 24 9.32869C20.6289 9.32869 17.2909 9.99293 14.1767 11.2835C11.0624 12.574 8.23297 14.4655 5.85001 16.85C5.66265 17.0362 5.4092 17.1408 5.14501 17.1408C4.88083 17.1408 4.62737 17.0362 4.44001 16.85L0.660012 13.08C0.56733 12.9865 0.494005 12.8757 0.444241 12.7539C0.394476 12.632 0.369251 12.5016 0.370012 12.37C0.369251 12.2384 0.394476 12.1079 0.444241 11.9861C0.494005 11.8642 0.56733 11.7534 0.660012 11.66C3.72455 8.59399 7.36313 6.16185 11.3679 4.50247C15.3726 2.8431 19.6651 1.98901 24 1.98901C28.3349 1.98901 32.6274 2.8431 36.6321 4.50247C40.6369 6.16185 44.2755 8.59399 47.34 11.66C47.4327 11.7534 47.506 11.8642 47.5558 11.9861C47.6055 12.1079 47.6308 12.2384 47.63 12.37C47.6308 12.5016 47.6055 12.632 47.5558 12.7539C47.506 12.8757 47.4327 12.9865 47.34 13.08L43.56 16.85C43.4674 16.9445 43.357 17.0196 43.2351 17.0711C43.1132 17.1226 42.9823 17.1494 42.85 17.15ZM2.79001 12.38L5.16001 14.74C10.2782 9.97852 17.0095 7.33163 24 7.33163C30.9905 7.33163 37.7218 9.97852 42.84 14.74L45.21 12.38C39.4634 6.98882 31.8796 3.98828 24 3.98828C16.1204 3.98828 8.53658 6.98882 2.79001 12.38V12.38Z" fill="#A9B0BC"/>
<path d="M35.3201 24.68C35.1885 24.6808 35.058 24.6556 34.9362 24.6058C34.8143 24.5561 34.7035 24.4827 34.6101 24.39C33.2171 22.9961 31.563 21.8904 29.7425 21.136C27.922 20.3816 25.9707 19.9932 24.0001 19.9932C22.0294 19.9932 20.0781 20.3816 18.2576 21.136C16.4371 21.8904 14.7831 22.9961 13.3901 24.39C13.2027 24.5763 12.9492 24.6808 12.6851 24.6808C12.4209 24.6808 12.1674 24.5763 11.9801 24.39L8.21006 20.62C8.02532 20.4338 7.92117 20.1824 7.92006 19.92C7.9193 19.7884 7.94452 19.658 7.99429 19.5361C8.04405 19.4143 8.11738 19.3035 8.21006 19.21C10.2836 17.1364 12.7453 15.4915 15.4545 14.3693C18.1638 13.247 21.0676 12.6694 24.0001 12.6694C26.9326 12.6694 29.8363 13.247 32.5456 14.3693C35.2548 15.4915 37.7165 17.1364 39.7901 19.21C39.8827 19.3035 39.9561 19.4143 40.0058 19.5361C40.0556 19.658 40.0808 19.7884 40.0801 19.92C40.079 20.1824 39.9748 20.4338 39.7901 20.62L36.0001 24.39C35.8188 24.57 35.5754 24.6738 35.3201 24.68V24.68ZM10.3201 19.93L12.6801 22.29C15.7914 19.5262 19.8084 17.9997 23.9701 17.9997C28.1317 17.9997 32.1487 19.5262 35.2601 22.29L37.6201 19.93C33.8799 16.5444 29.015 14.6696 23.9701 14.6696C18.9251 14.6696 14.0602 16.5444 10.3201 19.93V19.93Z" fill="#A9B0BC"/>
<path d="M24 36C23.8683 36.0007 23.7379 35.9755 23.616 35.9258C23.4942 35.876 23.3834 35.8027 23.29 35.71L15.75 28.16C15.6555 28.0674 15.5803 27.9569 15.5288 27.8351C15.4773 27.7132 15.4505 27.5823 15.45 27.45C15.4537 27.1862 15.5615 26.9346 15.75 26.75C16.8329 25.6657 18.1189 24.8055 19.5345 24.2187C20.9501 23.6318 22.4675 23.3297 24 23.3297C25.5324 23.3297 27.0498 23.6318 28.4654 24.2187C29.881 24.8055 31.167 25.6657 32.25 26.75C32.4362 26.9373 32.5407 27.1908 32.5407 27.455C32.5407 27.7192 32.4362 27.9726 32.25 28.16L24.71 35.71C24.6165 35.8027 24.5057 35.876 24.3839 35.9258C24.262 35.9755 24.1316 36.0007 24 36ZM17.9 27.49L24 33.59L30.1 27.49C28.3743 26.0919 26.2208 25.329 24 25.329C21.7791 25.329 19.6256 26.0919 17.9 27.49V27.49Z" fill="#A9B0BC"/>
<path d="M21.9 42.8V44.12H16.6201V43.12L19.32 40.57C19.94 39.98 20.0401 39.57 20.0401 39.28C20.0401 38.73 19.67 38.41 18.93 38.41C18.6495 38.3987 18.3704 38.4566 18.1175 38.5787C17.8646 38.7008 17.6457 38.8833 17.48 39.11L16.3 38.3C16.6205 37.8711 17.0419 37.528 17.5269 37.3012C18.0119 37.0744 18.5454 36.971 19.08 37C20.63 37 21.67 37.8 21.67 39.07C21.6604 39.504 21.5496 39.9298 21.3465 40.3135C21.1434 40.6971 20.8536 41.0281 20.5 41.28L18.9 42.8H21.9Z" fill="#A9B0BC"/>
<path d="M22.63 43.22C22.6842 43.0038 22.8091 42.8119 22.9848 42.6748C23.1605 42.5376 23.3771 42.4631 23.6 42.4631C23.8229 42.4631 24.0394 42.5376 24.2152 42.6748C24.3909 42.8119 24.5158 43.0038 24.57 43.22C24.6069 43.3675 24.6098 43.5214 24.5783 43.6702C24.5468 43.8189 24.4819 43.9585 24.3884 44.0783C24.2948 44.1982 24.1752 44.2951 24.0386 44.3618C23.902 44.4285 23.752 44.4631 23.6 44.4631C23.448 44.4631 23.2979 44.4285 23.1613 44.3618C23.0247 44.2951 22.9051 44.1982 22.8116 44.0783C22.7181 43.9585 22.6531 43.8189 22.6216 43.6702C22.5902 43.5214 22.593 43.3675 22.63 43.22V43.22Z" fill="#A9B0BC"/>
<path d="M31.7 42.65H30.56V44.12H29V42.65H25.22V41.56L28.52 37.12H30.21L27.16 41.33H29V40H30.52V41.31H31.7V42.65Z" fill="#A9B0BC"/>
</svg>
