<svg width="48" height="48" viewBox="0 0 48 48" fill="none" xmlns="http://www.w3.org/2000/svg">
<path d="M42.85 17.15C42.5862 17.1462 42.3346 17.0384 42.15 16.85C39.7671 14.4655 36.9376 12.574 33.8234 11.2835C30.7091 9.99293 27.3711 9.32869 24 9.32869C20.6289 9.32869 17.2909 9.99293 14.1767 11.2835C11.0624 12.574 8.23297 14.4655 5.85001 16.85C5.66538 17.0384 5.41378 17.1462 5.15001 17.15V17.15C5.0177 17.1494 4.88682 17.1226 4.76495 17.0711C4.64307 17.0196 4.53263 16.9445 4.44001 16.85L0.660012 13.08C0.56733 12.9865 0.494005 12.8757 0.444241 12.7539C0.394476 12.632 0.369251 12.5016 0.370012 12.37C0.369251 12.2384 0.394476 12.1079 0.444241 11.9861C0.494005 11.8642 0.56733 11.7534 0.660012 11.66C3.72455 8.59399 7.36313 6.16185 11.3679 4.50247C15.3726 2.8431 19.6651 1.98901 24 1.98901C28.3349 1.98901 32.6274 2.8431 36.6321 4.50247C40.6369 6.16185 44.2755 8.59399 47.34 11.66C47.4327 11.7534 47.506 11.8642 47.5558 11.9861C47.6055 12.1079 47.6308 12.2384 47.63 12.37C47.6308 12.5016 47.6055 12.632 47.5558 12.7539C47.506 12.8757 47.4327 12.9865 47.34 13.08L43.56 16.85C43.4674 16.9445 43.357 17.0196 43.2351 17.0711C43.1132 17.1226 42.9823 17.1494 42.85 17.15ZM24 7.32997C30.9936 7.31542 37.7302 9.965 42.84 14.74L45.21 12.38C39.4634 6.98882 31.8796 3.98828 24 3.98828C16.1204 3.98828 8.53658 6.98882 2.79001 12.38L5.16001 14.74C10.2698 9.965 17.0064 7.31542 24 7.32997V7.32997Z" fill="#A9B0BC"/>
<path d="M35.3201 24.68C35.1885 24.6808 35.058 24.6556 34.9362 24.6058C34.8143 24.5561 34.7035 24.4827 34.6101 24.39C33.2171 22.9961 31.563 21.8904 29.7425 21.136C27.922 20.3816 25.9707 19.9932 24.0001 19.9932C22.0294 19.9932 20.0781 20.3816 18.2576 21.136C16.4371 21.8904 14.7831 22.9961 13.3901 24.39C13.2027 24.5763 12.9492 24.6808 12.6851 24.6808C12.4209 24.6808 12.1674 24.5763 11.9801 24.39L8.21006 20.62C8.02532 20.4338 7.92117 20.1824 7.92006 19.92C7.9193 19.7884 7.94452 19.658 7.99429 19.5361C8.04405 19.4143 8.11738 19.3035 8.21006 19.21C10.2836 17.1364 12.7453 15.4915 15.4545 14.3693C18.1638 13.247 21.0676 12.6694 24.0001 12.6694C26.9326 12.6694 29.8363 13.247 32.5456 14.3693C35.2548 15.4915 37.7165 17.1364 39.7901 19.21C39.8827 19.3035 39.9561 19.4143 40.0058 19.5361C40.0556 19.658 40.0808 19.7884 40.0801 19.92C40.079 20.1824 39.9748 20.4338 39.7901 20.62L36.0001 24.39C35.8188 24.57 35.5754 24.6738 35.3201 24.68V24.68ZM24.0001 18C28.1632 17.9915 32.1831 19.519 35.2901 22.29L37.6501 19.93C33.9099 16.5444 29.045 14.6696 24.0001 14.6696C18.9551 14.6696 14.0902 16.5444 10.3501 19.93L12.7101 22.29C15.817 19.519 19.8369 17.9915 24.0001 18V18Z" fill="#A9B0BC"/>
<path d="M24 36C23.8684 36.0007 23.738 35.9755 23.6161 35.9258C23.4943 35.876 23.3835 35.8027 23.29 35.71L15.75 28.16C15.5638 27.9726 15.4592 27.7192 15.4592 27.455C15.4592 27.1908 15.5638 26.9373 15.75 26.75C16.8329 25.6657 18.119 24.8055 19.5346 24.2187C20.9502 23.6318 22.4676 23.3297 24 23.3297C25.5325 23.3297 27.0499 23.6318 28.4655 24.2187C29.8811 24.8055 31.1671 25.6657 32.25 26.75C32.4363 26.9373 32.5408 27.1908 32.5408 27.455C32.5408 27.7192 32.4363 27.9726 32.25 28.16L24.71 35.71C24.6166 35.8027 24.5058 35.876 24.3839 35.9258C24.2621 35.9755 24.1316 36.0007 24 36ZM17.9 27.49L24 33.59L30.1 27.49C28.3744 26.0919 26.2209 25.329 24 25.329C21.7791 25.329 19.6256 26.0919 17.9 27.49V27.49Z" fill="#A9B0BC"/>
<path d="M22.21 41.8801C22.21 43.1201 21.3 44.2001 19.31 44.2001C18.3659 44.2159 17.4378 43.9552 16.64 43.4501L17.28 42.2101C17.8627 42.6274 18.5633 42.8481 19.28 42.8401C20.09 42.8401 20.59 42.5001 20.59 41.9301C20.59 41.3601 20.21 41.0001 19 41.0001H17.16L17.52 37.0601H21.78V38.3601H18.87L18.76 39.6901H19.33C21.39 39.7101 22.21 40.6401 22.21 41.8801Z" fill="#A9B0BC"/>
<path d="M22.83 43.18C22.8842 42.9638 23.0091 42.7718 23.1849 42.6347C23.3606 42.4976 23.5771 42.4231 23.8 42.4231C24.023 42.4231 24.2395 42.4976 24.4152 42.6347C24.591 42.7718 24.7159 42.9638 24.77 43.18C24.807 43.3274 24.8099 43.4814 24.7784 43.6301C24.7469 43.7788 24.682 43.9184 24.5884 44.0383C24.4949 44.1581 24.3753 44.2551 24.2387 44.3218C24.1021 44.3884 23.9521 44.4231 23.8 44.4231C23.648 44.4231 23.498 44.3884 23.3614 44.3218C23.2248 44.2551 23.1052 44.1581 23.0117 44.0383C22.9181 43.9184 22.8532 43.7788 22.8217 43.6301C22.7902 43.4814 22.7931 43.3274 22.83 43.18Z" fill="#A9B0BC"/>
<path d="M25.37 40.58C25.37 38.27 26.65 36.96 28.37 36.96C30.09 36.96 31.37 38.27 31.37 40.58C31.37 42.89 30.1 44.2 28.37 44.2C26.64 44.2 25.37 42.89 25.37 40.58ZM29.73 40.58C29.73 38.99 29.17 38.33 28.36 38.33C27.55 38.33 27 39 27 40.58C27 42.16 27.56 42.83 28.35 42.83C29.14 42.83 29.73 42.17 29.73 40.58Z" fill="#A9B0BC"/>
</svg>
